<svg width="24" height="24" viewBox="0 0 24 24" stroke="#ffffff" fill="#18181a" xmlns="http://www.w3.org/2000/svg">
<path d="M3.4975 20.5004C4.3275 21.3304 5.6675 21.3304 6.4975 20.5004L19.4975 7.50043C20.3275 6.67043 20.3275 5.33043 19.4975 4.50043C18.6675 3.67043 17.3275 3.67043 16.4975 4.50043L3.4975 17.5004C2.6675 18.3304 2.6675 19.6704 3.4975 20.5004Z" stroke-width="1" stroke-linecap="round" stroke-linejoin="round"/>
<path d="M18.0078 8.99023L15.0078 5.99023" stroke-width="1" stroke-linecap="round" stroke-linejoin="round"/>
<path d="M8.5 2.44L10 2L9.56 3.5L10 5L8.5 4.56L7 5L7.44 3.5L7 2L8.5 2.44Z" stroke-linecap="round" stroke-linejoin="round"/>
<path d="M4.5 8.44L6 8L5.56 9.5L6 11L4.5 10.56L3 11L3.44 9.5L3 8L4.5 8.44Z" stroke-linecap="round" stroke-linejoin="round"/>
<path d="M19.5 13.44L21 13L20.56 14.5L21 16L19.5 15.56L18 16L18.44 14.5L18 13L19.5 13.44Z" stroke-linecap="round" stroke-linejoin="round"/>
</svg>
